<svg xmlns="http://www.w3.org/2000/svg" xmlns:xlink="http://www.w3.org/1999/xlink" width="400" zoomAndPan="magnify" viewBox="0 0 300 149.999998" height="200" preserveAspectRatio="xMidYMid meet" version="1.0"><defs><g/><clipPath id="c10c1c0f4f"><path d="M 45 42 L 54 42 L 54 79 L 45 79 Z M 45 42 " clip-rule="nonzero"/></clipPath><clipPath id="e8e1331a46"><path d="M 37.078125 45.089844 L 48.960938 42.019531 L 58.160156 77.671875 L 46.277344 80.738281 Z M 37.078125 45.089844 " clip-rule="nonzero"/></clipPath><clipPath id="cfc69eacfd"><path d="M 37.078125 45.089844 L 48.960938 42.019531 L 58.160156 77.671875 L 46.277344 80.738281 Z M 37.078125 45.089844 " clip-rule="nonzero"/></clipPath><clipPath id="c3ffd5dfc8"><path d="M 27.445312 37.5 L 36 37.5 L 36 78.699219 L 27.445312 78.699219 Z M 27.445312 37.5 " clip-rule="nonzero"/></clipPath><clipPath id="83e60e01fe"><path d="M 28 25 L 39 25 L 39 35 L 28 35 Z M 28 25 " clip-rule="nonzero"/></clipPath><clipPath id="e64c8d48ac"><path d="M 30.046875 23.355469 L 40.15625 26.261719 L 37.492188 35.53125 L 27.382812 32.625 Z M 30.046875 23.355469 " clip-rule="nonzero"/></clipPath><clipPath id="f4e2ef9ad0"><path d="M 30.046875 23.355469 L 40.15625 26.261719 L 37.492188 35.53125 L 27.382812 32.625 Z M 30.046875 23.355469 " clip-rule="nonzero"/></clipPath><clipPath id="7cbc365261"><path d="M 15 25 L 26 25 L 26 35 L 15 35 Z M 15 25 " clip-rule="nonzero"/></clipPath><clipPath id="c5bff2292b"><path d="M 18.132812 23.359375 L 27.480469 28.175781 L 23.0625 36.75 L 13.714844 31.929688 Z M 18.132812 23.359375 " clip-rule="nonzero"/></clipPath><clipPath id="a65e29ec42"><path d="M 18.132812 23.359375 L 27.480469 28.175781 L 23.0625 36.75 L 13.714844 31.929688 Z M 18.132812 23.359375 " clip-rule="nonzero"/></clipPath><clipPath id="bbf4f6fe97"><path d="M 28 32 L 39 32 L 39 43 L 28 43 Z M 28 32 " clip-rule="nonzero"/></clipPath><clipPath id="5a952dfd6e"><path d="M 30.949219 31.015625 L 40.300781 35.835938 L 35.882812 44.40625 L 26.53125 39.585938 Z M 30.949219 31.015625 " clip-rule="nonzero"/></clipPath><clipPath id="c183a9e76c"><path d="M 30.949219 31.015625 L 40.300781 35.835938 L 35.882812 44.40625 L 26.53125 39.585938 Z M 30.949219 31.015625 " clip-rule="nonzero"/></clipPath><clipPath id="e68fc7ee64"><path d="M 21 32.800781 L 30.484375 32.800781 L 30.484375 45.949219 L 21 45.949219 Z M 21 32.800781 " clip-rule="nonzero"/></clipPath><clipPath id="e44855a846"><path d="M 15.25 31.398438 L 25.769531 31.398438 L 25.769531 41.042969 L 15.25 41.042969 Z M 15.25 31.398438 " clip-rule="nonzero"/></clipPath><clipPath id="d4bfbd930c"><path d="M 21 20 L 32 20 L 32 42 L 21 42 Z M 21 20 " clip-rule="nonzero"/></clipPath><clipPath id="a6c92a2ca5"><path d="M 20.84375 41.71875 L 21.863281 20.703125 L 32.371094 21.210938 L 31.351562 42.226562 Z M 20.84375 41.71875 " clip-rule="nonzero"/></clipPath><clipPath id="8b74b239f6"><path d="M 20.84375 41.71875 L 21.863281 20.703125 L 32.371094 21.210938 L 31.351562 42.226562 Z M 20.84375 41.71875 " clip-rule="nonzero"/></clipPath><clipPath id="5c99acb1e7"><path d="M 53 44 L 64 44 L 64 54 L 53 54 Z M 53 44 " clip-rule="nonzero"/></clipPath><clipPath id="5cadb67814"><path d="M 60.886719 42.121094 L 65.046875 51.78125 L 56.191406 55.597656 L 52.027344 45.9375 Z M 60.886719 42.121094 " clip-rule="nonzero"/></clipPath><clipPath id="e805eee41b"><path d="M 60.886719 42.121094 L 65.046875 51.78125 L 56.191406 55.597656 L 52.027344 45.9375 Z M 60.886719 42.121094 " clip-rule="nonzero"/></clipPath><clipPath id="f050bc9681"><path d="M 48 32 L 58 32 L 58 43 L 48 43 Z M 48 32 " clip-rule="nonzero"/></clipPath><clipPath id="f050a97500"><path d="M 57.214844 31.949219 L 57.867188 42.445312 L 48.246094 43.046875 L 47.589844 32.550781 Z M 57.214844 31.949219 " clip-rule="nonzero"/></clipPath><clipPath id="62d7226f5a"><path d="M 57.214844 31.949219 L 57.867188 42.445312 L 48.246094 43.046875 L 47.589844 32.550781 Z M 57.214844 31.949219 " clip-rule="nonzero"/></clipPath><clipPath id="23714579b8"><path d="M 47 47 L 57 47 L 57 58 L 47 58 Z M 47 47 " clip-rule="nonzero"/></clipPath><clipPath id="b4b54b44f8"><path d="M 55.894531 46.800781 L 56.550781 57.296875 L 46.925781 57.898438 L 46.269531 47.402344 Z M 55.894531 46.800781 " clip-rule="nonzero"/></clipPath><clipPath id="63b3d341d9"><path d="M 55.894531 46.800781 L 56.550781 57.296875 L 46.925781 57.898438 L 46.269531 47.402344 Z M 55.894531 46.800781 " clip-rule="nonzero"/></clipPath><clipPath id="b735e322d9"><path d="M 38 43 L 52 43 L 52 55 L 38 55 Z M 38 43 " clip-rule="nonzero"/></clipPath><clipPath id="89fcca031e"><path d="M 48.828125 41.328125 L 52.789062 50.121094 L 40.796875 55.519531 L 36.839844 46.726562 Z M 48.828125 41.328125 " clip-rule="nonzero"/></clipPath><clipPath id="b7bb936c20"><path d="M 48.828125 41.328125 L 52.789062 50.121094 L 40.796875 55.519531 L 36.839844 46.726562 Z M 48.828125 41.328125 " clip-rule="nonzero"/></clipPath><clipPath id="9d9d565637"><path d="M 40 35 L 52 35 L 52 46 L 40 46 Z M 40 35 " clip-rule="nonzero"/></clipPath><clipPath id="ab28b21bc7"><path d="M 47.605469 33.136719 L 53 42.167969 L 44.71875 47.109375 L 39.328125 38.078125 Z M 47.605469 33.136719 " clip-rule="nonzero"/></clipPath><clipPath id="1f45650d11"><path d="M 47.605469 33.136719 L 53 42.167969 L 44.71875 47.109375 L 39.328125 38.078125 Z M 47.605469 33.136719 " clip-rule="nonzero"/></clipPath><clipPath id="f877fcc4da"><path d="M 45 38 L 65 38 L 65 53 L 45 53 Z M 45 38 " clip-rule="nonzero"/></clipPath><clipPath id="e1d3639102"><path d="M 42.84375 45.628906 L 61.40625 35.730469 L 66.355469 45.011719 L 47.792969 54.910156 Z M 42.84375 45.628906 " clip-rule="nonzero"/></clipPath><clipPath id="efb1e0956e"><path d="M 42.84375 45.628906 L 61.40625 35.730469 L 66.355469 45.011719 L 47.792969 54.910156 Z M 42.84375 45.628906 " clip-rule="nonzero"/></clipPath><clipPath id="3d3e1ef782"><path d="M 23.269531 30.359375 L 28.527344 30.359375 L 28.527344 35.617188 L 23.269531 35.617188 Z M 23.269531 30.359375 " clip-rule="nonzero"/></clipPath><clipPath id="b4bc07f4aa"><path d="M 49.476562 42.921875 L 54.738281 42.921875 L 54.738281 48.179688 L 49.476562 48.179688 Z M 49.476562 42.921875 " clip-rule="nonzero"/></clipPath><clipPath id="eef27b6fbf"><path d="M 263 43 L 272 43 L 272 80 L 263 80 Z M 263 43 " clip-rule="nonzero"/></clipPath><clipPath id="9fc6c4e5e5"><path d="M 254.761719 45.964844 L 266.644531 42.898438 L 275.84375 78.546875 L 263.960938 81.613281 Z M 254.761719 45.964844 " clip-rule="nonzero"/></clipPath><clipPath id="14d8af1178"><path d="M 254.761719 45.964844 L 266.644531 42.898438 L 275.84375 78.546875 L 263.960938 81.613281 Z M 254.761719 45.964844 " clip-rule="nonzero"/></clipPath><clipPath id="3c713b24eb"><path d="M 245.125 38.375 L 254 38.375 L 254 79.578125 L 245.125 79.578125 Z M 245.125 38.375 " clip-rule="nonzero"/></clipPath><clipPath id="16a0021238"><path d="M 246 26 L 257 26 L 257 36 L 246 36 Z M 246 26 " clip-rule="nonzero"/></clipPath><clipPath id="6da0767fec"><path d="M 247.730469 24.234375 L 257.839844 27.140625 L 255.175781 36.40625 L 245.066406 33.5 Z M 247.730469 24.234375 " clip-rule="nonzero"/></clipPath><clipPath id="3cedec784d"><path d="M 247.730469 24.234375 L 257.839844 27.140625 L 255.175781 36.40625 L 245.066406 33.5 Z M 247.730469 24.234375 " clip-rule="nonzero"/></clipPath><clipPath id="05660f1a04"><path d="M 233 25 L 244 25 L 244 36 L 233 36 Z M 233 25 " clip-rule="nonzero"/></clipPath><clipPath id="75f557eeb7"><path d="M 235.816406 24.234375 L 245.164062 29.054688 L 240.746094 37.625 L 231.398438 32.804688 Z M 235.816406 24.234375 " clip-rule="nonzero"/></clipPath><clipPath id="8c0d2fe746"><path d="M 235.816406 24.234375 L 245.164062 29.054688 L 240.746094 37.625 L 231.398438 32.804688 Z M 235.816406 24.234375 " clip-rule="nonzero"/></clipPath><clipPath id="05968c46e8"><path d="M 245 33 L 257 33 L 257 44 L 245 44 Z M 245 33 " clip-rule="nonzero"/></clipPath><clipPath id="391a29629b"><path d="M 248.632812 31.890625 L 257.984375 36.710938 L 253.566406 45.28125 L 244.214844 40.464844 Z M 248.632812 31.890625 " clip-rule="nonzero"/></clipPath><clipPath id="5698ac5667"><path d="M 248.632812 31.890625 L 257.984375 36.710938 L 253.566406 45.28125 L 244.214844 40.464844 Z M 248.632812 31.890625 " clip-rule="nonzero"/></clipPath><clipPath id="37473fe511"><path d="M 238.527344 33.675781 L 248.167969 33.675781 L 248.167969 46.824219 L 238.527344 46.824219 Z M 238.527344 33.675781 " clip-rule="nonzero"/></clipPath><clipPath id="a3e99094d5"><path d="M 233 32.277344 L 243.453125 32.277344 L 243.453125 41.917969 L 233 41.917969 Z M 233 32.277344 " clip-rule="nonzero"/></clipPath><clipPath id="69baf90777"><path d="M 239 21 L 250 21 L 250 43 L 239 43 Z M 239 21 " clip-rule="nonzero"/></clipPath><clipPath id="df67a90760"><path d="M 238.527344 42.59375 L 239.546875 21.578125 L 250.050781 22.089844 L 249.035156 43.101562 Z M 238.527344 42.59375 " clip-rule="nonzero"/></clipPath><clipPath id="198cd36809"><path d="M 238.527344 42.59375 L 239.546875 21.578125 L 250.050781 22.089844 L 249.035156 43.101562 Z M 238.527344 42.59375 " clip-rule="nonzero"/></clipPath><clipPath id="338c4c8872"><path d="M 270 45 L 282 45 L 282 55 L 270 55 Z M 270 45 " clip-rule="nonzero"/></clipPath><clipPath id="0363c135c1"><path d="M 278.566406 43 L 282.730469 52.660156 L 273.875 56.476562 L 269.710938 46.816406 Z M 278.566406 43 " clip-rule="nonzero"/></clipPath><clipPath id="85a7b4697f"><path d="M 278.566406 43 L 282.730469 52.660156 L 273.875 56.476562 L 269.710938 46.816406 Z M 278.566406 43 " clip-rule="nonzero"/></clipPath><clipPath id="8e344e26f3"><path d="M 266 33 L 276 33 L 276 44 L 266 44 Z M 266 33 " clip-rule="nonzero"/></clipPath><clipPath id="19897488ef"><path d="M 274.894531 32.824219 L 275.550781 43.324219 L 265.929688 43.925781 L 265.273438 33.425781 Z M 274.894531 32.824219 " clip-rule="nonzero"/></clipPath><clipPath id="6548c92164"><path d="M 274.894531 32.824219 L 275.550781 43.324219 L 265.929688 43.925781 L 265.273438 33.425781 Z M 274.894531 32.824219 " clip-rule="nonzero"/></clipPath><clipPath id="1b14701792"><path d="M 264 48 L 274 48 L 274 59 L 264 59 Z M 264 48 " clip-rule="nonzero"/></clipPath><clipPath id="96c791c4bd"><path d="M 273.578125 47.675781 L 274.234375 58.175781 L 264.609375 58.777344 L 263.953125 48.277344 Z M 273.578125 47.675781 " clip-rule="nonzero"/></clipPath><clipPath id="f17cd8509a"><path d="M 273.578125 47.675781 L 274.234375 58.175781 L 264.609375 58.777344 L 263.953125 48.277344 Z M 273.578125 47.675781 " clip-rule="nonzero"/></clipPath><clipPath id="c0e4ff3c70"><path d="M 256 44 L 269 44 L 269 55 L 256 55 Z M 256 44 " clip-rule="nonzero"/></clipPath><clipPath id="84a84aab65"><path d="M 266.511719 42.203125 L 270.46875 50.996094 L 258.480469 56.394531 L 254.519531 47.601562 Z M 266.511719 42.203125 " clip-rule="nonzero"/></clipPath><clipPath id="30d79358d9"><path d="M 266.511719 42.203125 L 270.46875 50.996094 L 258.480469 56.394531 L 254.519531 47.601562 Z M 266.511719 42.203125 " clip-rule="nonzero"/></clipPath><clipPath id="3eeb8e2a68"><path d="M 258 36 L 270 36 L 270 46 L 258 46 Z M 258 36 " clip-rule="nonzero"/></clipPath><clipPath id="ffa9b77d47"><path d="M 265.289062 34.011719 L 270.683594 43.042969 L 262.402344 47.988281 L 257.011719 38.957031 Z M 265.289062 34.011719 " clip-rule="nonzero"/></clipPath><clipPath id="a1308b997c"><path d="M 265.289062 34.011719 L 270.683594 43.042969 L 262.402344 47.988281 L 257.011719 38.957031 Z M 265.289062 34.011719 " clip-rule="nonzero"/></clipPath><clipPath id="85d05dffab"><path d="M 262 39 L 283 39 L 283 54 L 262 54 Z M 262 39 " clip-rule="nonzero"/></clipPath><clipPath id="6cbe6faf86"><path d="M 260.527344 46.507812 L 279.089844 36.605469 L 284.039062 45.890625 L 265.476562 55.789062 Z M 260.527344 46.507812 " clip-rule="nonzero"/></clipPath><clipPath id="1e160e893d"><path d="M 260.527344 46.507812 L 279.089844 36.605469 L 284.039062 45.890625 L 265.476562 55.789062 Z M 260.527344 46.507812 " clip-rule="nonzero"/></clipPath><clipPath id="58283b2e9b"><path d="M 240.953125 31.234375 L 246.210938 31.234375 L 246.210938 36.496094 L 240.953125 36.496094 Z M 240.953125 31.234375 " clip-rule="nonzero"/></clipPath><clipPath id="02cdfdada4"><path d="M 267.160156 43.796875 L 272.417969 43.796875 L 272.417969 49.058594 L 267.160156 49.058594 Z M 267.160156 43.796875 " clip-rule="nonzero"/></clipPath></defs><g fill="#f9afa6" fill-opacity="1"><g transform="translate(63.897069, 78.890942)"><g><path d="M 12.625 0 C 8.15625 0 5.921875 -2.234375 5.921875 -6.703125 L 5.921875 -48 C 5.921875 -52.46875 8.15625 -54.703125 12.625 -54.703125 L 14.046875 -54.703125 C 18.523438 -54.703125 20.765625 -52.46875 20.765625 -48 L 20.765625 -6.703125 C 20.765625 -2.234375 18.523438 0 14.046875 0 Z M 12.625 0 "/></g></g></g><g fill="#f9afa6" fill-opacity="1"><g transform="translate(95.31445, 78.890942)"><g><path d="M 11.765625 0 C 9.503906 0 7.816406 -0.613281 6.703125 -1.84375 C 5.597656 -3.082031 5.15625 -4.8125 5.375 -7.03125 L 5.53125 -9.3125 C 6.050781 -14.945312 7.085938 -19.457031 8.640625 -22.84375 C 10.191406 -26.238281 12.234375 -28.625 14.765625 -30 L 14.765625 -30.3125 C 13.179688 -31.363281 11.769531 -32.613281 10.53125 -34.0625 C 9.300781 -35.507812 8.265625 -37.320312 7.421875 -39.5 C 6.578125 -41.6875 5.945312 -44.410156 5.53125 -47.671875 C 5.257812 -49.890625 5.675781 -51.601562 6.78125 -52.8125 C 7.894531 -54.019531 9.582031 -54.625 11.84375 -54.625 L 15 -54.625 C 19.15625 -54.625 21.523438 -52.363281 22.109375 -47.84375 C 22.628906 -44.15625 23.125 -41.285156 23.59375 -39.234375 C 24.070312 -37.179688 24.648438 -35.734375 25.328125 -34.890625 C 26.015625 -34.046875 26.941406 -33.625 28.109375 -33.625 C 29.210938 -33.625 30.128906 -34.019531 30.859375 -34.8125 C 31.597656 -35.601562 32.191406 -37 32.640625 -39 C 33.085938 -41 33.335938 -43.785156 33.390625 -47.359375 C 33.492188 -52.203125 35.703125 -54.625 40.015625 -54.625 L 42.078125 -54.625 C 44.335938 -54.625 46.019531 -54.019531 47.125 -52.8125 C 48.226562 -51.601562 48.648438 -49.890625 48.390625 -47.671875 C 47.441406 -42.785156 46.21875 -39.050781 44.71875 -36.46875 C 43.21875 -33.882812 41.125 -31.832031 38.4375 -30.3125 L 38.4375 -30 C 41.125 -28.570312 43.226562 -26.132812 44.75 -22.6875 C 46.28125 -19.25 47.492188 -14.789062 48.390625 -9.3125 L 48.546875 -7.03125 C 48.753906 -4.8125 48.304688 -3.082031 47.203125 -1.84375 C 46.097656 -0.613281 44.414062 0 42.15625 0 L 39.234375 0 C 35.078125 0 32.757812 -2.316406 32.28125 -6.953125 C 31.757812 -12.265625 30.90625 -15.972656 29.71875 -18.078125 C 28.53125 -20.179688 27.019531 -21.234375 25.1875 -21.234375 C 23.445312 -21.234375 22.164062 -20.21875 21.34375 -18.1875 C 20.53125 -16.164062 20.070312 -12.5 19.96875 -7.1875 C 19.863281 -2.394531 17.628906 0 13.265625 0 Z M 11.765625 0 "/></g></g></g><g fill="#f9afa6" fill-opacity="1"><g transform="translate(153.965091, 78.890942)"><g><path d="M 12.625 0 C 8.15625 0 5.921875 -2.234375 5.921875 -6.703125 L 5.921875 -48 C 5.921875 -52.46875 8.15625 -54.703125 12.625 -54.703125 L 14.046875 -54.703125 C 18.523438 -54.703125 20.765625 -52.46875 20.765625 -48 L 20.765625 -6.703125 C 20.765625 -2.234375 18.523438 0 14.046875 0 Z M 12.625 0 "/></g></g></g><g fill="#f9afa6" fill-opacity="1"><g transform="translate(185.382472, 78.890942)"><g><path d="M 25.1875 -55.5 C 28.601562 -55.5 31.597656 -54.691406 34.171875 -53.078125 C 36.753906 -51.472656 38.910156 -48.828125 40.640625 -45.140625 C 42.378906 -41.460938 43.707031 -36.519531 44.625 -30.3125 C 45.550781 -24.101562 46.09375 -16.367188 46.25 -7.109375 C 46.3125 -4.835938 45.757812 -3.082031 44.59375 -1.84375 C 43.4375 -0.613281 41.78125 0 39.625 0 L 38.4375 0 C 33.96875 0 31.734375 -2.050781 31.734375 -6.15625 C 31.734375 -7.207031 31.734375 -8.234375 31.734375 -9.234375 C 31.734375 -10.234375 31.707031 -11.234375 31.65625 -12.234375 L 17.6875 -12.234375 C 17.6875 -11.390625 17.671875 -10.503906 17.640625 -9.578125 C 17.617188 -8.660156 17.609375 -7.703125 17.609375 -6.703125 C 17.609375 -2.234375 15.394531 0 10.96875 0 C 8.863281 0 7.234375 -0.578125 6.078125 -1.734375 C 4.921875 -2.890625 4.367188 -4.570312 4.421875 -6.78125 C 4.472656 -8.945312 4.523438 -11 4.578125 -12.9375 C 4.628906 -14.882812 4.707031 -16.753906 4.8125 -18.546875 C 5.445312 -27.859375 6.617188 -35.210938 8.328125 -40.609375 C 10.035156 -46.003906 12.296875 -49.832031 15.109375 -52.09375 C 17.929688 -54.363281 21.289062 -55.5 25.1875 -55.5 Z M 17.84375 -21.625 L 31.34375 -21.625 C 31.019531 -27.519531 30.539062 -32.113281 29.90625 -35.40625 C 29.28125 -38.695312 28.476562 -41.007812 27.5 -42.34375 C 26.53125 -43.6875 25.390625 -44.359375 24.078125 -44.359375 C 22.765625 -44.359375 21.671875 -43.6875 20.796875 -42.34375 C 19.929688 -41.007812 19.273438 -38.695312 18.828125 -35.40625 C 18.378906 -32.113281 18.050781 -27.519531 17.84375 -21.625 Z M 17.84375 -21.625 "/></g></g></g><path stroke-linecap="butt" transform="matrix(-0.876627, 0, 0, -0.876627, 275.667526, 102.627051)" fill="none" stroke-linejoin="miter" d="M -0.000504582 3.999371 L 286.743009 3.999371 " stroke="#fbdcd9" stroke-width="8" stroke-opacity="1" stroke-miterlimit="4"/><g fill="#f9afa6" fill-opacity="1"><g transform="translate(20.342161, 134.659609)"><g><path d="M 11.3125 0.3125 C 7.9375 0.3125 5.46875 -0.628906 3.90625 -2.515625 C 2.351562 -4.398438 1.578125 -7.210938 1.578125 -10.953125 C 1.578125 -18.453125 4.671875 -22.203125 10.859375 -22.203125 C 12.984375 -22.203125 14.6875 -21.773438 15.96875 -20.921875 C 17.257812 -20.066406 18.070312 -18.804688 18.40625 -17.140625 C 18.570312 -16.285156 18.390625 -15.617188 17.859375 -15.140625 C 17.335938 -14.671875 16.644531 -14.4375 15.78125 -14.4375 L 15.40625 -14.4375 C 14.863281 -14.4375 14.445312 -14.53125 14.15625 -14.71875 C 13.875 -14.90625 13.648438 -15.1875 13.484375 -15.5625 C 13.316406 -15.945312 13.128906 -16.398438 12.921875 -16.921875 C 12.640625 -17.597656 11.960938 -17.9375 10.890625 -17.9375 C 10.003906 -17.9375 9.300781 -17.707031 8.78125 -17.25 C 8.269531 -16.800781 7.90625 -16.070312 7.6875 -15.0625 C 7.46875 -14.050781 7.359375 -12.679688 7.359375 -10.953125 C 7.359375 -9.097656 7.53125 -7.675781 7.875 -6.6875 C 8.226562 -5.695312 8.691406 -5.019531 9.265625 -4.65625 C 9.847656 -4.289062 10.472656 -4.109375 11.140625 -4.109375 C 11.878906 -4.109375 12.507812 -4.222656 13.03125 -4.453125 C 13.5625 -4.679688 13.828125 -5 13.828125 -5.40625 L 13.828125 -7.828125 L 13.328125 -7.828125 C 11.535156 -7.828125 10.640625 -8.503906 10.640625 -9.859375 C 10.640625 -11.203125 11.535156 -11.875 13.328125 -11.875 L 16.203125 -11.875 C 17.992188 -11.875 18.890625 -10.976562 18.890625 -9.1875 L 18.890625 -4.890625 C 18.890625 -4.242188 18.835938 -3.703125 18.734375 -3.265625 C 18.640625 -2.835938 18.445312 -2.460938 18.15625 -2.140625 C 17.5 -1.453125 16.640625 -0.867188 15.578125 -0.390625 C 14.515625 0.078125 13.09375 0.3125 11.3125 0.3125 Z M 11.3125 0.3125 "/></g></g></g><g fill="#f9afa6" fill-opacity="1"><g transform="translate(47.115309, 134.659609)"><g><path d="M 5.046875 0 C 3.265625 0 2.375 -0.894531 2.375 -2.6875 C 2.394531 -4.050781 2.410156 -5.421875 2.421875 -6.796875 C 2.429688 -8.179688 2.4375 -9.566406 2.4375 -10.953125 C 2.4375 -12.328125 2.429688 -13.703125 2.421875 -15.078125 C 2.410156 -16.453125 2.394531 -17.828125 2.375 -19.203125 C 2.375 -20.992188 3.265625 -21.890625 5.046875 -21.890625 L 10.484375 -21.890625 C 13.679688 -21.890625 16.003906 -21.367188 17.453125 -20.328125 C 18.910156 -19.296875 19.640625 -17.625 19.640625 -15.3125 C 19.640625 -13.90625 19.253906 -12.695312 18.484375 -11.6875 C 17.722656 -10.675781 16.664062 -10 15.3125 -9.65625 L 15.3125 -9.53125 C 16.363281 -9.21875 17.226562 -8.546875 17.90625 -7.515625 C 18.582031 -6.484375 19.140625 -4.988281 19.578125 -3.03125 C 19.785156 -2.082031 19.660156 -1.335938 19.203125 -0.796875 C 18.753906 -0.265625 18.066406 0 17.140625 0 L 16.140625 0 C 14.492188 0 13.546875 -0.851562 13.296875 -2.5625 C 13.148438 -3.570312 12.9375 -4.472656 12.65625 -5.265625 C 12.382812 -6.066406 11.992188 -6.703125 11.484375 -7.171875 C 10.984375 -7.648438 10.300781 -7.890625 9.4375 -7.890625 L 8.28125 -7.890625 C 8.28125 -7.023438 8.28125 -6.15625 8.28125 -5.28125 C 8.28125 -4.414062 8.289062 -3.550781 8.3125 -2.6875 C 8.3125 -0.894531 7.414062 0 5.625 0 Z M 8.28125 -11.375 L 9.34375 -11.375 C 10.84375 -11.375 11.914062 -11.632812 12.5625 -12.15625 C 13.21875 -12.6875 13.546875 -13.550781 13.546875 -14.75 C 13.546875 -15.738281 13.25 -16.445312 12.65625 -16.875 C 12.070312 -17.3125 11.128906 -17.53125 9.828125 -17.53125 L 8.3125 -17.53125 C 8.289062 -16.75 8.28125 -15.898438 8.28125 -14.984375 C 8.28125 -14.066406 8.28125 -12.863281 8.28125 -11.375 Z M 8.28125 -11.375 "/></g></g></g><g fill="#f9afa6" fill-opacity="1"><g transform="translate(74.961849, 134.659609)"><g><path d="M 10.859375 0.3125 C 4.671875 0.3125 1.578125 -3.441406 1.578125 -10.953125 C 1.578125 -18.453125 4.671875 -22.203125 10.859375 -22.203125 C 17.023438 -22.203125 20.109375 -18.453125 20.109375 -10.953125 C 20.109375 -3.441406 17.023438 0.3125 10.859375 0.3125 Z M 10.859375 -3.953125 C 11.703125 -3.953125 12.351562 -4.160156 12.8125 -4.578125 C 13.28125 -4.992188 13.609375 -5.710938 13.796875 -6.734375 C 13.984375 -7.765625 14.078125 -9.171875 14.078125 -10.953125 C 14.078125 -12.742188 13.984375 -14.144531 13.796875 -15.15625 C 13.609375 -16.164062 13.28125 -16.878906 12.8125 -17.296875 C 12.351562 -17.722656 11.703125 -17.9375 10.859375 -17.9375 C 10.035156 -17.9375 9.382812 -17.722656 8.90625 -17.296875 C 8.4375 -16.878906 8.101562 -16.164062 7.90625 -15.15625 C 7.707031 -14.144531 7.609375 -12.742188 7.609375 -10.953125 C 7.609375 -9.171875 7.707031 -7.765625 7.90625 -6.734375 C 8.101562 -5.710938 8.4375 -4.992188 8.90625 -4.578125 C 9.382812 -4.160156 10.035156 -3.953125 10.859375 -3.953125 Z M 10.859375 -3.953125 "/></g></g></g><g fill="#f9afa6" fill-opacity="1"><g transform="translate(102.99782, 134.659609)"><g><path d="M 10.671875 0.3125 C 5.023438 0.3125 2.203125 -2.285156 2.203125 -7.484375 C 2.203125 -9.046875 2.207031 -10.609375 2.21875 -12.171875 C 2.226562 -13.742188 2.234375 -15.296875 2.234375 -16.828125 C 2.234375 -17.234375 2.234375 -17.628906 2.234375 -18.015625 C 2.234375 -18.398438 2.234375 -18.796875 2.234375 -19.203125 C 2.234375 -20.992188 3.117188 -21.890625 4.890625 -21.890625 L 5.46875 -21.890625 C 6.320312 -21.890625 6.976562 -21.65625 7.4375 -21.1875 C 7.90625 -20.726562 8.128906 -20.066406 8.109375 -19.203125 C 8.109375 -18.421875 8.109375 -17.648438 8.109375 -16.890625 C 8.109375 -16.128906 8.109375 -15.363281 8.109375 -14.59375 C 8.109375 -13.4375 8.109375 -12.28125 8.109375 -11.125 C 8.109375 -9.976562 8.117188 -8.828125 8.140625 -7.671875 C 8.160156 -6.304688 8.359375 -5.34375 8.734375 -4.78125 C 9.117188 -4.226562 9.765625 -3.953125 10.671875 -3.953125 C 11.722656 -3.953125 12.453125 -4.226562 12.859375 -4.78125 C 13.273438 -5.34375 13.484375 -6.304688 13.484375 -7.671875 C 13.503906 -8.828125 13.519531 -9.976562 13.53125 -11.125 C 13.539062 -12.28125 13.546875 -13.4375 13.546875 -14.59375 C 13.546875 -15.34375 13.546875 -16.101562 13.546875 -16.875 C 13.546875 -17.644531 13.535156 -18.410156 13.515625 -19.171875 C 13.492188 -20.054688 13.71875 -20.726562 14.1875 -21.1875 C 14.664062 -21.65625 15.335938 -21.890625 16.203125 -21.890625 L 16.234375 -21.890625 C 17.097656 -21.890625 17.757812 -21.65625 18.21875 -21.1875 C 18.6875 -20.726562 18.910156 -20.066406 18.890625 -19.203125 C 18.890625 -18.421875 18.890625 -17.648438 18.890625 -16.890625 C 18.890625 -16.128906 18.890625 -15.363281 18.890625 -14.59375 C 18.890625 -13.414062 18.894531 -12.226562 18.90625 -11.03125 C 18.914062 -9.84375 18.921875 -8.660156 18.921875 -7.484375 C 18.921875 -2.285156 16.171875 0.3125 10.671875 0.3125 Z M 10.671875 0.3125 "/></g></g></g><g fill="#f9afa6" fill-opacity="1"><g transform="translate(130.433945, 134.659609)"><g><path d="M 5.046875 0 C 3.265625 0 2.375 -0.894531 2.375 -2.6875 C 2.394531 -4.050781 2.410156 -5.421875 2.421875 -6.796875 C 2.429688 -8.179688 2.4375 -9.566406 2.4375 -10.953125 C 2.4375 -12.328125 2.429688 -13.703125 2.421875 -15.078125 C 2.410156 -16.453125 2.394531 -17.828125 2.375 -19.203125 C 2.375 -20.992188 3.265625 -21.890625 5.046875 -21.890625 L 10.484375 -21.890625 C 13.679688 -21.890625 16.003906 -21.34375 17.453125 -20.25 C 18.910156 -19.164062 19.640625 -17.414062 19.640625 -15 C 19.640625 -13.269531 19.222656 -11.773438 18.390625 -10.515625 C 17.554688 -9.253906 16.378906 -8.28125 14.859375 -7.59375 C 13.347656 -6.90625 11.539062 -6.5625 9.4375 -6.5625 L 8.28125 -6.5625 C 8.28125 -5.914062 8.28125 -5.269531 8.28125 -4.625 C 8.28125 -3.976562 8.289062 -3.332031 8.3125 -2.6875 C 8.3125 -0.894531 7.414062 0 5.625 0 Z M 8.28125 -11.046875 L 9.34375 -11.046875 C 10.84375 -11.046875 11.914062 -11.335938 12.5625 -11.921875 C 13.21875 -12.503906 13.546875 -13.445312 13.546875 -14.75 C 13.546875 -15.738281 13.25 -16.445312 12.65625 -16.875 C 12.070312 -17.3125 11.128906 -17.53125 9.828125 -17.53125 L 8.3125 -17.53125 C 8.289062 -16.6875 8.28125 -15.785156 8.28125 -14.828125 C 8.28125 -13.867188 8.28125 -12.609375 8.28125 -11.046875 Z M 8.28125 -11.046875 "/></g></g></g><g fill="#f9afa6" fill-opacity="1"><g transform="translate(157.649091, 134.659609)"><g/></g></g><g fill="#f9afa6" fill-opacity="1"><g transform="translate(171.857245, 134.659609)"><g><path d="M 19.578125 -10.953125 C 19.554688 -9.585938 19.550781 -8.210938 19.5625 -6.828125 C 19.570312 -5.453125 19.578125 -4.070312 19.578125 -2.6875 C 19.597656 -1.820312 19.375 -1.15625 18.90625 -0.6875 C 18.445312 -0.226562 17.785156 0 16.921875 0 L 16.328125 0 C 15.460938 0 14.796875 -0.226562 14.328125 -0.6875 C 13.867188 -1.15625 13.648438 -1.820312 13.671875 -2.6875 C 13.691406 -3.675781 13.703125 -4.664062 13.703125 -5.65625 C 13.703125 -6.644531 13.703125 -7.625 13.703125 -8.59375 L 8.28125 -8.59375 C 8.28125 -7.625 8.28125 -6.644531 8.28125 -5.65625 C 8.28125 -4.664062 8.28125 -3.675781 8.28125 -2.6875 C 8.300781 -1.820312 8.078125 -1.15625 7.609375 -0.6875 C 7.148438 -0.226562 6.488281 0 5.625 0 L 5.046875 0 C 4.179688 0 3.519531 -0.226562 3.0625 -0.6875 C 2.601562 -1.15625 2.382812 -1.820312 2.40625 -2.6875 C 2.40625 -4.070312 2.410156 -5.453125 2.421875 -6.828125 C 2.429688 -8.210938 2.4375 -9.585938 2.4375 -10.953125 C 2.4375 -12.328125 2.429688 -13.703125 2.421875 -15.078125 C 2.410156 -16.453125 2.40625 -17.828125 2.40625 -19.203125 C 2.382812 -20.066406 2.601562 -20.726562 3.0625 -21.1875 C 3.519531 -21.65625 4.179688 -21.890625 5.046875 -21.890625 L 5.625 -21.890625 C 6.488281 -21.890625 7.148438 -21.65625 7.609375 -21.1875 C 8.078125 -20.726562 8.300781 -20.066406 8.28125 -19.203125 C 8.28125 -18.171875 8.28125 -17.132812 8.28125 -16.09375 C 8.28125 -15.050781 8.28125 -14.003906 8.28125 -12.953125 L 13.703125 -12.953125 C 13.703125 -14.003906 13.703125 -15.050781 13.703125 -16.09375 C 13.703125 -17.132812 13.691406 -18.171875 13.671875 -19.203125 C 13.648438 -20.066406 13.867188 -20.726562 14.328125 -21.1875 C 14.796875 -21.65625 15.460938 -21.890625 16.328125 -21.890625 L 16.921875 -21.890625 C 17.785156 -21.890625 18.445312 -21.65625 18.90625 -21.1875 C 19.375 -20.726562 19.597656 -20.066406 19.578125 -19.203125 C 19.578125 -17.828125 19.578125 -16.453125 19.578125 -15.078125 C 19.578125 -13.703125 19.578125 -12.328125 19.578125 -10.953125 Z M 19.578125 -10.953125 "/></g></g></g><g fill="#f9afa6" fill-opacity="1"><g transform="translate(200.145781, 134.659609)"><g><path d="M 10.859375 0.3125 C 4.671875 0.3125 1.578125 -3.441406 1.578125 -10.953125 C 1.578125 -18.453125 4.671875 -22.203125 10.859375 -22.203125 C 17.023438 -22.203125 20.109375 -18.453125 20.109375 -10.953125 C 20.109375 -3.441406 17.023438 0.3125 10.859375 0.3125 Z M 10.859375 -3.953125 C 11.703125 -3.953125 12.351562 -4.160156 12.8125 -4.578125 C 13.28125 -4.992188 13.609375 -5.710938 13.796875 -6.734375 C 13.984375 -7.765625 14.078125 -9.171875 14.078125 -10.953125 C 14.078125 -12.742188 13.984375 -14.144531 13.796875 -15.15625 C 13.609375 -16.164062 13.28125 -16.878906 12.8125 -17.296875 C 12.351562 -17.722656 11.703125 -17.9375 10.859375 -17.9375 C 10.035156 -17.9375 9.382812 -17.722656 8.90625 -17.296875 C 8.4375 -16.878906 8.101562 -16.164062 7.90625 -15.15625 C 7.707031 -14.144531 7.609375 -12.742188 7.609375 -10.953125 C 7.609375 -9.171875 7.707031 -7.765625 7.90625 -6.734375 C 8.101562 -5.710938 8.4375 -4.992188 8.90625 -4.578125 C 9.382812 -4.160156 10.035156 -3.953125 10.859375 -3.953125 Z M 10.859375 -3.953125 "/></g></g></g><g fill="#f9afa6" fill-opacity="1"><g transform="translate(228.181756, 134.659609)"><g><path d="M 22.265625 -21.890625 C 24.054688 -21.890625 24.953125 -20.992188 24.953125 -19.203125 C 24.953125 -17.828125 24.945312 -16.453125 24.9375 -15.078125 C 24.925781 -13.703125 24.921875 -12.328125 24.921875 -10.953125 C 24.921875 -9.566406 24.925781 -8.179688 24.9375 -6.796875 C 24.945312 -5.421875 24.953125 -4.050781 24.953125 -2.6875 C 24.953125 -0.894531 24.054688 0 22.265625 0 L 21.6875 0 C 19.90625 0 19.015625 -0.894531 19.015625 -2.6875 C 19.035156 -4.050781 19.050781 -5.421875 19.0625 -6.796875 C 19.070312 -8.179688 19.078125 -9.566406 19.078125 -10.953125 L 19.046875 -15.125 L 18.921875 -15.125 L 15.3125 -4.703125 C 14.8125 -3.253906 14.046875 -2.53125 13.015625 -2.53125 C 11.960938 -2.53125 11.203125 -3.265625 10.734375 -4.734375 L 7.421875 -15.125 L 7.265625 -15.125 C 7.285156 -13.207031 7.304688 -11.519531 7.328125 -10.0625 C 7.347656 -8.613281 7.375 -7.300781 7.40625 -6.125 C 7.4375 -4.945312 7.472656 -3.8125 7.515625 -2.71875 C 7.554688 -1.832031 7.351562 -1.15625 6.90625 -0.6875 C 6.46875 -0.226562 5.828125 0 4.984375 0 C 4.140625 0 3.492188 -0.226562 3.046875 -0.6875 C 2.597656 -1.15625 2.382812 -1.820312 2.40625 -2.6875 C 2.425781 -8.195312 2.425781 -13.703125 2.40625 -19.203125 C 2.382812 -20.066406 2.601562 -20.726562 3.0625 -21.1875 C 3.519531 -21.65625 4.179688 -21.890625 5.046875 -21.890625 L 7.953125 -21.890625 C 9.472656 -21.890625 10.492188 -21.179688 11.015625 -19.765625 L 13.734375 -12.59375 L 16.015625 -19.671875 C 16.472656 -21.148438 17.484375 -21.890625 19.046875 -21.890625 Z M 22.265625 -21.890625 "/></g></g></g><g fill="#f9afa6" fill-opacity="1"><g transform="translate(261.805671, 134.659609)"><g><path d="M 8.28125 -4.203125 C 9.195312 -4.222656 10.117188 -4.234375 11.046875 -4.234375 C 11.972656 -4.234375 12.878906 -4.242188 13.765625 -4.265625 C 15.554688 -4.265625 16.453125 -3.554688 16.453125 -2.140625 C 16.453125 -0.710938 15.554688 0 13.765625 0 L 5.046875 0 C 4.179688 0 3.519531 -0.226562 3.0625 -0.6875 C 2.601562 -1.15625 2.382812 -1.820312 2.40625 -2.6875 C 2.40625 -4.070312 2.410156 -5.453125 2.421875 -6.828125 C 2.429688 -8.210938 2.4375 -9.585938 2.4375 -10.953125 C 2.4375 -12.328125 2.429688 -13.703125 2.421875 -15.078125 C 2.410156 -16.453125 2.40625 -17.828125 2.40625 -19.203125 C 2.382812 -20.066406 2.601562 -20.726562 3.0625 -21.1875 C 3.519531 -21.65625 4.179688 -21.890625 5.046875 -21.890625 L 13.453125 -21.890625 C 15.242188 -21.890625 16.140625 -21.179688 16.140625 -19.765625 C 16.140625 -18.335938 15.242188 -17.625 13.453125 -17.625 C 12.609375 -17.644531 11.75 -17.65625 10.875 -17.65625 C 10 -17.65625 9.132812 -17.664062 8.28125 -17.6875 L 8.28125 -12.859375 C 8.945312 -12.878906 9.601562 -12.890625 10.25 -12.890625 C 10.90625 -12.890625 11.550781 -12.898438 12.1875 -12.921875 C 13.976562 -12.921875 14.875 -12.210938 14.875 -10.796875 C 14.875 -9.367188 13.976562 -8.65625 12.1875 -8.65625 C 11.550781 -8.675781 10.90625 -8.6875 10.25 -8.6875 C 9.601562 -8.6875 8.945312 -8.695312 8.28125 -8.71875 Z M 8.28125 -4.203125 "/></g></g></g><g clip-path="url(#c10c1c0f4f)"><g clip-path="url(#e8e1331a46)"><g clip-path="url(#cfc69eacfd)"><path fill="#517564" d="M 53.121094 78.75 C 52.878906 78.8125 52.59375 78.695312 52.410156 78.488281 C 41.101562 60.683594 47.457031 43.183594 47.53125 42.972656 C 47.648438 42.6875 47.996094 42.535156 48.339844 42.636719 C 48.6875 42.738281 48.839844 43.082031 48.675781 43.445312 C 48.648438 43.582031 42.46875 60.523438 53.519531 77.816406 C 53.714844 78.085938 53.628906 78.492188 53.359375 78.691406 C 53.300781 78.707031 53.238281 78.722656 53.121094 78.75 Z M 53.121094 78.75 " fill-opacity="1" fill-rule="nonzero"/></g></g></g><g clip-path="url(#c3ffd5dfc8)"><path fill="#517564" d="M 32.625 78.457031 C 32.902344 78.457031 33.179688 78.25 33.320312 77.972656 C 40.59375 55.527344 28.816406 38.347656 28.679688 38.140625 C 28.46875 37.863281 28.054688 37.796875 27.707031 38.003906 C 27.363281 38.210938 27.292969 38.625 27.570312 38.972656 C 27.640625 39.109375 39.070312 55.738281 31.933594 77.558594 C 31.796875 77.902344 32.003906 78.320312 32.347656 78.457031 C 32.417969 78.457031 32.488281 78.457031 32.625 78.457031 Z M 32.625 78.457031 " fill-opacity="1" fill-rule="nonzero"/></g><g clip-path="url(#83e60e01fe)"><g clip-path="url(#e64c8d48ac)"><g clip-path="url(#f4e2ef9ad0)"><path fill="#fbdcd9" d="M 34.574219 25.347656 C 33.617188 25.613281 32.507812 26.234375 31.648438 26.601562 C 30.777344 26.964844 30.132812 27.074219 29.523438 27.6875 C 28.910156 28.300781 28.304688 29.421875 28.40625 30.582031 C 28.523438 31.734375 29.335938 32.921875 30.714844 33.613281 C 32.09375 34.316406 34.046875 34.523438 35.429688 34.097656 C 36.808594 33.679688 37.621094 32.617188 38.183594 31.402344 C 38.746094 30.183594 39.046875 28.808594 38.839844 27.761719 C 38.648438 26.714844 37.933594 26.003906 37.167969 25.597656 C 36.390625 25.183594 35.546875 25.082031 34.574219 25.347656 Z M 34.574219 25.347656 " fill-opacity="1" fill-rule="evenodd"/></g></g></g><g clip-path="url(#7cbc365261)"><g clip-path="url(#c5bff2292b)"><g clip-path="url(#a65e29ec42)"><path fill="#fbdcd9" d="M 23.085938 26.105469 C 21.878906 25.292969 20.550781 24.867188 19.25 25.1875 C 17.964844 25.5 16.710938 26.535156 15.996094 27.710938 C 15.285156 28.878906 15.121094 30.175781 16.03125 31.539062 C 16.949219 32.910156 18.960938 34.351562 20.746094 34.675781 C 22.535156 35.015625 24.121094 34.230469 25.023438 33.164062 C 25.929688 32.085938 26.160156 30.714844 25.75 29.433594 C 25.335938 28.132812 24.277344 26.921875 23.085938 26.105469 Z M 23.085938 26.105469 " fill-opacity="1" fill-rule="evenodd"/></g></g></g><g clip-path="url(#bbf4f6fe97)"><g clip-path="url(#5a952dfd6e)"><g clip-path="url(#c183a9e76c)"><path fill="#fbdcd9" d="M 35.90625 33.765625 C 34.695312 32.953125 33.371094 32.527344 32.066406 32.84375 C 30.78125 33.15625 29.527344 34.191406 28.8125 35.371094 C 28.105469 36.535156 27.9375 37.832031 28.847656 39.195312 C 29.769531 40.566406 31.777344 42.007812 33.5625 42.332031 C 35.351562 42.671875 36.9375 41.890625 37.839844 40.820312 C 38.746094 39.746094 38.980469 38.371094 38.570312 37.089844 C 38.152344 35.792969 37.097656 34.582031 35.90625 33.765625 Z M 35.90625 33.765625 " fill-opacity="1" fill-rule="evenodd"/></g></g></g><g clip-path="url(#e68fc7ee64)"><path fill="#fbdcd9" d="M 26.769531 33.070312 C 25.570312 32.804688 24.515625 33.011719 23.609375 33.492188 C 22.699219 33.960938 21.925781 34.722656 21.457031 36.390625 C 21.003906 38.058594 20.84375 40.664062 21.457031 42.40625 C 22.085938 44.160156 23.476562 45.066406 24.894531 45.375 C 26.332031 45.683594 27.777344 45.390625 28.757812 44.804688 C 29.726562 44.21875 30.222656 43.339844 30.457031 41.628906 C 30.691406 39.917969 30.660156 37.371094 29.988281 35.730469 C 29.300781 34.078125 27.96875 33.347656 26.769531 33.070312 Z M 26.769531 33.070312 " fill-opacity="1" fill-rule="evenodd"/></g><g clip-path="url(#e44855a846)"><path fill="#fbdcd9" d="M 20.152344 32.058594 C 19.300781 32.582031 18.40625 33.488281 17.683594 34.074219 C 16.945312 34.664062 16.359375 34.949219 15.941406 35.707031 C 15.519531 36.464844 15.25 37.710938 15.667969 38.796875 C 16.097656 39.871094 17.207031 40.789062 18.726562 41.070312 C 20.242188 41.367188 22.175781 41.027344 23.390625 40.234375 C 24.601562 39.453125 25.085938 38.207031 25.289062 36.882812 C 25.496094 35.558594 25.402344 34.15625 24.917969 33.203125 C 24.441406 32.253906 23.558594 31.765625 22.710938 31.585938 C 21.847656 31.402344 21.011719 31.539062 20.152344 32.058594 Z M 20.152344 32.058594 " fill-opacity="1" fill-rule="evenodd"/></g><g clip-path="url(#d4bfbd930c)"><g clip-path="url(#a6c92a2ca5)"><g clip-path="url(#8b74b239f6)"><path fill="#fbdcd9" d="M 27.15625 20.820312 C 27.503906 20.839844 27.84375 20.921875 28.179688 21.074219 C 28.511719 21.226562 28.832031 21.445312 29.140625 21.726562 C 29.449219 22.007812 29.738281 22.347656 30.007812 22.746094 C 30.277344 23.144531 30.523438 23.597656 30.746094 24.101562 C 30.96875 24.601562 31.160156 25.148438 31.324219 25.734375 C 31.492188 26.320312 31.625 26.9375 31.726562 27.585938 C 31.828125 28.234375 31.894531 28.902344 31.929688 29.585938 C 31.964844 30.269531 31.964844 30.960938 31.933594 31.652344 C 31.898438 32.347656 31.832031 33.035156 31.730469 33.710938 C 31.628906 34.390625 31.496094 35.046875 31.332031 35.679688 C 31.167969 36.316406 30.976562 36.917969 30.757812 37.484375 C 30.535156 38.054688 30.289062 38.578125 30.019531 39.054688 C 29.75 39.535156 29.464844 39.960938 29.15625 40.332031 C 28.847656 40.703125 28.527344 41.015625 28.195312 41.265625 C 27.859375 41.515625 27.519531 41.699219 27.171875 41.820312 C 26.828125 41.9375 26.480469 41.988281 26.132812 41.972656 C 25.785156 41.957031 25.445312 41.871094 25.109375 41.71875 C 24.777344 41.566406 24.457031 41.351562 24.148438 41.070312 C 23.839844 40.789062 23.550781 40.449219 23.28125 40.046875 C 23.011719 39.648438 22.765625 39.195312 22.542969 38.695312 C 22.320312 38.191406 22.128906 37.648438 21.964844 37.058594 C 21.796875 36.472656 21.664062 35.855469 21.5625 35.207031 C 21.460938 34.558594 21.394531 33.894531 21.359375 33.210938 C 21.324219 32.523438 21.324219 31.835938 21.355469 31.140625 C 21.390625 30.445312 21.457031 29.761719 21.558594 29.082031 C 21.660156 28.40625 21.792969 27.75 21.957031 27.113281 C 22.117188 26.476562 22.3125 25.875 22.53125 25.308594 C 22.753906 24.742188 23 24.21875 23.265625 23.738281 C 23.535156 23.257812 23.824219 22.832031 24.132812 22.460938 C 24.441406 22.089844 24.761719 21.777344 25.09375 21.527344 C 25.425781 21.277344 25.769531 21.09375 26.113281 20.976562 C 26.460938 20.855469 26.808594 20.804688 27.15625 20.820312 Z M 27.15625 20.820312 " fill-opacity="1" fill-rule="nonzero"/></g></g></g><g clip-path="url(#5c99acb1e7)"><g clip-path="url(#5cadb67814)"><g clip-path="url(#e805eee41b)"><path fill="#fbdcd9" d="M 62.21875 46.886719 C 61.402344 46.3125 60.21875 45.847656 59.390625 45.417969 C 58.558594 44.972656 58.066406 44.546875 57.203125 44.460938 C 56.339844 44.375 55.089844 44.621094 54.257812 45.433594 C 53.441406 46.253906 53.035156 47.636719 53.378906 49.140625 C 53.707031 50.652344 54.785156 52.296875 55.992188 53.09375 C 57.1875 53.898438 58.527344 53.851562 59.824219 53.515625 C 61.121094 53.175781 62.375 52.539062 63.054688 51.714844 C 63.738281 50.902344 63.835938 49.898438 63.667969 49.046875 C 63.492188 48.183594 63.035156 47.46875 62.21875 46.886719 Z M 62.21875 46.886719 " fill-opacity="1" fill-rule="evenodd"/></g></g></g><g clip-path="url(#f050bc9681)"><g clip-path="url(#f050a97500)"><g clip-path="url(#62d7226f5a)"><path fill="#fbdcd9" d="M 57.394531 37.613281 C 57.472656 36.15625 57.15625 34.800781 56.214844 33.847656 C 55.289062 32.902344 53.757812 32.355469 52.378906 32.347656 C 51.015625 32.335938 49.816406 32.855469 49.109375 34.339844 C 48.40625 35.832031 48.199219 38.296875 48.835938 39.992188 C 49.460938 41.707031 50.949219 42.664062 52.324219 42.890625 C 53.714844 43.117188 55.011719 42.613281 55.902344 41.605469 C 56.804688 40.582031 57.300781 39.054688 57.394531 37.613281 Z M 57.394531 37.613281 " fill-opacity="1" fill-rule="evenodd"/></g></g></g><g clip-path="url(#23714579b8)"><g clip-path="url(#b4b54b44f8)"><g clip-path="url(#63b3d341d9)"><path fill="#fbdcd9" d="M 56.074219 52.464844 C 56.152344 51.007812 55.839844 49.652344 54.898438 48.695312 C 53.96875 47.753906 52.4375 47.207031 51.058594 47.199219 C 49.695312 47.1875 48.496094 47.707031 47.792969 49.1875 C 47.089844 50.683594 46.878906 53.144531 47.515625 54.84375 C 48.144531 56.558594 49.628906 57.515625 51.007812 57.742188 C 52.398438 57.96875 53.695312 57.464844 54.585938 56.457031 C 55.488281 55.433594 55.984375 53.90625 56.074219 52.464844 Z M 56.074219 52.464844 " fill-opacity="1" fill-rule="evenodd"/></g></g></g><g clip-path="url(#b735e322d9)"><g clip-path="url(#89fcca031e)"><g clip-path="url(#b7bb936c20)"><path fill="#fbdcd9" d="M 51.015625 46.84375 C 50.761719 45.640625 50.144531 44.761719 49.332031 44.132812 C 48.53125 43.5 47.519531 43.105469 45.804688 43.363281 C 44.097656 43.632812 41.65625 44.554688 40.320312 45.832031 C 38.980469 47.125 38.722656 48.765625 39.023438 50.1875 C 39.332031 51.621094 40.195312 52.820312 41.132812 53.476562 C 42.0625 54.117188 43.066406 54.207031 44.722656 53.71875 C 46.382812 53.230469 48.691406 52.15625 49.910156 50.871094 C 51.132812 49.566406 51.253906 48.050781 51.015625 46.84375 Z M 51.015625 46.84375 " fill-opacity="1" fill-rule="evenodd"/></g></g></g><g clip-path="url(#9d9d565637)"><g clip-path="url(#ab28b21bc7)"><g clip-path="url(#1f45650d11)"><path fill="#fbdcd9" d="M 49.550781 37.683594 C 48.667969 37.222656 47.433594 36.917969 46.554688 36.597656 C 45.671875 36.265625 45.128906 35.90625 44.261719 35.9375 C 43.394531 35.964844 42.1875 36.371094 41.46875 37.285156 C 40.765625 38.207031 40.546875 39.628906 41.082031 41.078125 C 41.609375 42.53125 42.890625 44.019531 44.191406 44.652344 C 45.484375 45.292969 46.804688 45.074219 48.046875 44.566406 C 49.289062 44.0625 50.445312 43.265625 51.011719 42.359375 C 51.585938 41.464844 51.550781 40.457031 51.269531 39.636719 C 50.984375 38.804688 50.441406 38.15625 49.550781 37.683594 Z M 49.550781 37.683594 " fill-opacity="1" fill-rule="evenodd"/></g></g></g><g clip-path="url(#f877fcc4da)"><g clip-path="url(#e1d3639102)"><g clip-path="url(#efb1e0956e)"><path fill="#fbdcd9" d="M 64.019531 40.335938 C 64.183594 40.644531 64.285156 40.980469 64.324219 41.34375 C 64.367188 41.707031 64.34375 42.09375 64.261719 42.503906 C 64.175781 42.914062 64.03125 43.335938 63.828125 43.773438 C 63.625 44.207031 63.363281 44.652344 63.042969 45.097656 C 62.726562 45.546875 62.355469 45.992188 61.9375 46.433594 C 61.519531 46.878906 61.058594 47.308594 60.550781 47.726562 C 60.046875 48.148438 59.511719 48.546875 58.941406 48.929688 C 58.371094 49.308594 57.78125 49.664062 57.167969 49.992188 C 56.554688 50.316406 55.929688 50.613281 55.296875 50.871094 C 54.664062 51.132812 54.03125 51.355469 53.402344 51.542969 C 52.773438 51.726562 52.15625 51.871094 51.554688 51.972656 C 50.957031 52.074219 50.378906 52.128906 49.832031 52.144531 C 49.28125 52.160156 48.769531 52.128906 48.292969 52.054688 C 47.816406 51.984375 47.382812 51.867188 46.996094 51.710938 C 46.613281 51.550781 46.277344 51.351562 46 51.117188 C 45.71875 50.878906 45.496094 50.609375 45.332031 50.300781 C 45.167969 49.992188 45.066406 49.660156 45.027344 49.292969 C 44.984375 48.929688 45.007812 48.542969 45.089844 48.132812 C 45.175781 47.726562 45.320312 47.300781 45.523438 46.867188 C 45.730469 46.429688 45.988281 45.988281 46.308594 45.539062 C 46.625 45.089844 46.996094 44.644531 47.414062 44.203125 C 47.832031 43.761719 48.296875 43.328125 48.800781 42.910156 C 49.304688 42.488281 49.839844 42.089844 50.410156 41.710938 C 50.980469 41.328125 51.570312 40.976562 52.183594 40.648438 C 52.796875 40.320312 53.421875 40.027344 54.054688 39.765625 C 54.6875 39.503906 55.320312 39.28125 55.949219 39.097656 C 56.578125 38.910156 57.195312 38.769531 57.796875 38.667969 C 58.394531 38.566406 58.972656 38.507812 59.519531 38.492188 C 60.070312 38.480469 60.582031 38.507812 61.058594 38.582031 C 61.535156 38.65625 61.96875 38.769531 62.355469 38.929688 C 62.738281 39.085938 63.074219 39.285156 63.351562 39.519531 C 63.632812 39.757812 63.855469 40.03125 64.019531 40.335938 Z M 64.019531 40.335938 " fill-opacity="1" fill-rule="nonzero"/></g></g></g><g clip-path="url(#3d3e1ef782)"><path fill="#f9afa6" d="M 25.976562 30.359375 C 25.742188 30.367188 25.402344 30.445312 25.132812 30.550781 C 24.695312 30.730469 24.273438 31.070312 23.992188 31.46875 C 23.867188 31.648438 23.703125 31.925781 23.640625 32.058594 C 23.480469 32.394531 23.359375 32.875 23.3125 33.34375 C 23.269531 33.761719 23.382812 34.320312 23.59375 34.714844 C 23.84375 35.195312 24.0625 35.394531 24.546875 35.585938 C 24.867188 35.714844 25.441406 35.84375 25.828125 35.875 C 26.023438 35.890625 26.074219 35.890625 26.285156 35.875 C 26.515625 35.859375 26.699219 35.824219 26.933594 35.75 C 27.386719 35.613281 27.675781 35.453125 27.984375 35.164062 C 28.171875 34.984375 28.363281 34.71875 28.496094 34.449219 C 28.59375 34.246094 28.722656 33.867188 28.773438 33.628906 C 28.808594 33.46875 28.8125 33.417969 28.8125 33.144531 C 28.8125 32.878906 28.808594 32.820312 28.78125 32.679688 C 28.707031 32.34375 28.578125 32.019531 28.425781 31.789062 C 28.292969 31.589844 28.0625 31.292969 27.960938 31.183594 C 27.714844 30.925781 27.28125 30.648438 26.964844 30.542969 C 26.789062 30.484375 26.222656 30.371094 26.066406 30.359375 C 26.039062 30.359375 26.007812 30.359375 25.976562 30.359375 Z M 25.976562 30.359375 " fill-opacity="1" fill-rule="nonzero"/></g><g clip-path="url(#b4bc07f4aa)"><path fill="#f9afa6" d="M 52.183594 42.921875 C 51.953125 42.929688 51.609375 43.007812 51.34375 43.117188 C 50.902344 43.292969 50.480469 43.632812 50.203125 44.035156 C 50.078125 44.210938 49.910156 44.488281 49.847656 44.621094 C 49.691406 44.957031 49.566406 45.4375 49.519531 45.90625 C 49.476562 46.324219 49.59375 46.882812 49.800781 47.28125 C 50.054688 47.757812 50.273438 47.957031 50.753906 48.148438 C 51.078125 48.277344 51.652344 48.40625 52.039062 48.4375 C 52.234375 48.453125 52.28125 48.453125 52.496094 48.4375 C 52.722656 48.421875 52.90625 48.386719 53.144531 48.316406 C 53.59375 48.175781 53.882812 48.015625 54.191406 47.726562 C 54.382812 47.546875 54.570312 47.28125 54.703125 47.011719 C 54.800781 46.808594 54.933594 46.429688 54.984375 46.191406 C 55.015625 46.03125 55.019531 45.980469 55.023438 45.707031 C 55.023438 45.441406 55.019531 45.382812 54.988281 45.242188 C 54.917969 44.90625 54.789062 44.582031 54.636719 44.351562 C 54.503906 44.15625 54.273438 43.855469 54.167969 43.746094 C 53.921875 43.488281 53.492188 43.210938 53.171875 43.105469 C 52.996094 43.046875 52.429688 42.933594 52.277344 42.921875 C 52.25 42.921875 52.21875 42.921875 52.183594 42.921875 Z M 52.183594 42.921875 " fill-opacity="1" fill-rule="nonzero"/></g><g clip-path="url(#eef27b6fbf)"><g clip-path="url(#9fc6c4e5e5)"><g clip-path="url(#14d8af1178)"><path fill="#517564" d="M 270.800781 79.628906 C 270.5625 79.691406 270.277344 79.574219 270.09375 79.363281 C 258.785156 61.5625 265.140625 44.0625 265.214844 43.851562 C 265.332031 43.5625 265.679688 43.410156 266.023438 43.515625 C 266.371094 43.617188 266.523438 43.960938 266.359375 44.320312 C 266.332031 44.457031 260.152344 61.402344 271.199219 78.695312 C 271.398438 78.964844 271.3125 79.371094 271.042969 79.566406 C 270.984375 79.582031 270.921875 79.597656 270.800781 79.628906 Z M 270.800781 79.628906 " fill-opacity="1" fill-rule="nonzero"/></g></g></g><g clip-path="url(#3c713b24eb)"><path fill="#517564" d="M 250.308594 79.332031 C 250.585938 79.332031 250.863281 79.125 251.003906 78.847656 C 258.277344 56.40625 246.5 39.226562 246.363281 39.019531 C 246.152344 38.742188 245.738281 38.671875 245.390625 38.878906 C 245.046875 39.085938 244.976562 39.503906 245.253906 39.847656 C 245.324219 39.988281 256.753906 56.613281 249.617188 78.433594 C 249.480469 78.78125 249.6875 79.195312 250.03125 79.332031 C 250.101562 79.332031 250.171875 79.332031 250.308594 79.332031 Z M 250.308594 79.332031 " fill-opacity="1" fill-rule="nonzero"/></g><g clip-path="url(#16a0021238)"><g clip-path="url(#6da0767fec)"><g clip-path="url(#3cedec784d)"><path fill="#fbdcd9" d="M 252.257812 26.222656 C 251.300781 26.488281 250.191406 27.113281 249.332031 27.476562 C 248.460938 27.839844 247.816406 27.949219 247.203125 28.5625 C 246.59375 29.175781 245.988281 30.296875 246.089844 31.457031 C 246.207031 32.609375 247.019531 33.796875 248.398438 34.488281 C 249.777344 35.191406 251.730469 35.398438 253.113281 34.972656 C 254.492188 34.558594 255.304688 33.496094 255.867188 32.277344 C 256.429688 31.0625 256.730469 29.6875 256.523438 28.636719 C 256.328125 27.59375 255.617188 26.882812 254.847656 26.472656 C 254.074219 26.0625 253.230469 25.960938 252.257812 26.222656 Z M 252.257812 26.222656 " fill-opacity="1" fill-rule="evenodd"/></g></g></g><g clip-path="url(#05660f1a04)"><g clip-path="url(#75f557eeb7)"><g clip-path="url(#8c0d2fe746)"><path fill="#fbdcd9" d="M 240.769531 26.984375 C 239.5625 26.171875 238.234375 25.746094 236.933594 26.0625 C 235.644531 26.375 234.394531 27.410156 233.679688 28.589844 C 232.96875 29.753906 232.800781 31.050781 233.710938 32.414062 C 234.632812 33.785156 236.644531 35.226562 238.429688 35.550781 C 240.21875 35.890625 241.800781 35.105469 242.703125 34.039062 C 243.613281 32.960938 243.84375 31.589844 243.433594 30.308594 C 243.019531 29.011719 241.960938 27.800781 240.769531 26.984375 Z M 240.769531 26.984375 " fill-opacity="1" fill-rule="evenodd"/></g></g></g><g clip-path="url(#05968c46e8)"><g clip-path="url(#391a29629b)"><g clip-path="url(#5698ac5667)"><path fill="#fbdcd9" d="M 253.585938 34.640625 C 252.378906 33.828125 251.054688 33.402344 249.75 33.722656 C 248.464844 34.035156 247.210938 35.070312 246.496094 36.246094 C 245.785156 37.414062 245.621094 38.710938 246.53125 40.074219 C 247.453125 41.441406 249.460938 42.886719 251.246094 43.210938 C 253.035156 43.550781 254.621094 42.765625 255.523438 41.699219 C 256.429688 40.621094 256.664062 39.25 256.253906 37.96875 C 255.835938 36.667969 254.78125 35.457031 253.585938 34.640625 Z M 253.585938 34.640625 " fill-opacity="1" fill-rule="evenodd"/></g></g></g><g clip-path="url(#37473fe511)"><path fill="#fbdcd9" d="M 244.453125 33.945312 C 243.253906 33.683594 242.199219 33.886719 241.292969 34.371094 C 240.382812 34.839844 239.609375 35.597656 239.140625 37.265625 C 238.6875 38.933594 238.527344 41.539062 239.140625 43.28125 C 239.769531 45.039062 241.160156 45.945312 242.578125 46.253906 C 244.011719 46.558594 245.460938 46.265625 246.441406 45.679688 C 247.410156 45.097656 247.90625 44.21875 248.140625 42.507812 C 248.375 40.792969 248.34375 38.246094 247.671875 36.609375 C 246.984375 34.953125 245.652344 34.222656 244.453125 33.945312 Z M 244.453125 33.945312 " fill-opacity="1" fill-rule="evenodd"/></g><g clip-path="url(#a3e99094d5)"><path fill="#fbdcd9" d="M 237.835938 32.9375 C 236.984375 33.457031 236.089844 34.363281 235.367188 34.953125 C 234.628906 35.539062 234.042969 35.824219 233.621094 36.582031 C 233.203125 37.339844 232.933594 38.585938 233.351562 39.671875 C 233.78125 40.75 234.890625 41.664062 236.40625 41.949219 C 237.925781 42.242188 239.859375 41.902344 241.070312 41.109375 C 242.285156 40.328125 242.769531 39.085938 242.972656 37.761719 C 243.179688 36.433594 243.085938 35.03125 242.601562 34.082031 C 242.125 33.128906 241.242188 32.644531 240.394531 32.460938 C 239.53125 32.28125 238.695312 32.417969 237.835938 32.9375 Z M 237.835938 32.9375 " fill-opacity="1" fill-rule="evenodd"/></g><g clip-path="url(#69baf90777)"><g clip-path="url(#df67a90760)"><g clip-path="url(#198cd36809)"><path fill="#fbdcd9" d="M 244.839844 21.699219 C 245.1875 21.714844 245.527344 21.800781 245.863281 21.953125 C 246.195312 22.101562 246.515625 22.320312 246.824219 22.601562 C 247.132812 22.882812 247.421875 23.222656 247.691406 23.621094 C 247.960938 24.023438 248.207031 24.472656 248.429688 24.976562 C 248.652344 25.480469 248.84375 26.023438 249.007812 26.613281 C 249.171875 27.199219 249.308594 27.816406 249.410156 28.464844 C 249.511719 29.113281 249.578125 29.777344 249.613281 30.460938 C 249.648438 31.144531 249.648438 31.835938 249.617188 32.53125 C 249.582031 33.222656 249.515625 33.910156 249.414062 34.589844 C 249.3125 35.265625 249.179688 35.921875 249.015625 36.558594 C 248.851562 37.191406 248.660156 37.792969 248.441406 38.363281 C 248.21875 38.929688 247.972656 39.453125 247.703125 39.933594 C 247.433594 40.414062 247.148438 40.835938 246.839844 41.210938 C 246.53125 41.582031 246.210938 41.890625 245.878906 42.140625 C 245.542969 42.394531 245.203125 42.578125 244.855469 42.695312 C 244.507812 42.816406 244.164062 42.867188 243.816406 42.847656 C 243.46875 42.832031 243.128906 42.75 242.792969 42.597656 C 242.460938 42.445312 242.136719 42.226562 241.832031 41.945312 C 241.523438 41.664062 241.234375 41.324219 240.964844 40.925781 C 240.695312 40.523438 240.449219 40.074219 240.226562 39.570312 C 240.003906 39.066406 239.8125 38.523438 239.644531 37.9375 C 239.480469 37.351562 239.347656 36.730469 239.246094 36.085938 C 239.144531 35.4375 239.074219 34.769531 239.042969 34.085938 C 239.007812 33.402344 239.007812 32.710938 239.039062 32.019531 C 239.074219 31.324219 239.140625 30.636719 239.242188 29.960938 C 239.34375 29.28125 239.472656 28.625 239.636719 27.988281 C 239.800781 27.355469 239.996094 26.753906 240.214844 26.183594 C 240.4375 25.617188 240.679688 25.09375 240.949219 24.613281 C 241.21875 24.136719 241.507812 23.710938 241.816406 23.339844 C 242.125 22.964844 242.445312 22.65625 242.777344 22.40625 C 243.109375 22.15625 243.453125 21.96875 243.796875 21.851562 C 244.144531 21.734375 244.492188 21.679688 244.839844 21.699219 Z M 244.839844 21.699219 " fill-opacity="1" fill-rule="nonzero"/></g></g></g><g clip-path="url(#338c4c8872)"><g clip-path="url(#0363c135c1)"><g clip-path="url(#85a7b4697f)"><path fill="#fbdcd9" d="M 279.902344 47.761719 C 279.085938 47.1875 277.902344 46.726562 277.074219 46.292969 C 276.242188 45.851562 275.75 45.421875 274.886719 45.335938 C 274.023438 45.253906 272.773438 45.496094 271.941406 46.3125 C 271.125 47.132812 270.71875 48.511719 271.058594 50.019531 C 271.390625 51.527344 272.46875 53.171875 273.675781 53.96875 C 274.871094 54.773438 276.207031 54.726562 277.503906 54.390625 C 278.804688 54.054688 280.054688 53.414062 280.738281 52.59375 C 281.421875 51.777344 281.519531 50.773438 281.351562 49.925781 C 281.175781 49.0625 280.71875 48.347656 279.902344 47.761719 Z M 279.902344 47.761719 " fill-opacity="1" fill-rule="evenodd"/></g></g></g><g clip-path="url(#8e344e26f3)"><g clip-path="url(#19897488ef)"><g clip-path="url(#6548c92164)"><path fill="#fbdcd9" d="M 275.078125 38.488281 C 275.15625 37.035156 274.839844 35.679688 273.898438 34.722656 C 272.972656 33.777344 271.441406 33.234375 270.0625 33.222656 C 268.699219 33.210938 267.5 33.734375 266.792969 35.214844 C 266.089844 36.707031 265.882812 39.171875 266.519531 40.871094 C 267.144531 42.582031 268.628906 43.539062 270.007812 43.769531 C 271.398438 43.996094 272.695312 43.492188 273.585938 42.480469 C 274.488281 41.460938 274.984375 39.929688 275.078125 38.488281 Z M 275.078125 38.488281 " fill-opacity="1" fill-rule="evenodd"/></g></g></g><g clip-path="url(#1b14701792)"><g clip-path="url(#96c791c4bd)"><g clip-path="url(#f17cd8509a)"><path fill="#fbdcd9" d="M 273.757812 53.339844 C 273.835938 51.886719 273.519531 50.527344 272.582031 49.574219 C 271.652344 48.628906 270.121094 48.085938 268.742188 48.074219 C 267.378906 48.0625 266.179688 48.585938 265.476562 50.066406 C 264.769531 51.558594 264.5625 54.023438 265.199219 55.722656 C 265.828125 57.433594 267.3125 58.390625 268.691406 58.617188 C 270.082031 58.847656 271.378906 58.34375 272.269531 57.332031 C 273.171875 56.3125 273.667969 54.78125 273.757812 53.339844 Z M 273.757812 53.339844 " fill-opacity="1" fill-rule="evenodd"/></g></g></g><g clip-path="url(#c0e4ff3c70)"><g clip-path="url(#84a84aab65)"><g clip-path="url(#30d79358d9)"><path fill="#fbdcd9" d="M 268.699219 47.71875 C 268.445312 46.515625 267.828125 45.640625 267.015625 45.011719 C 266.214844 44.375 265.203125 43.980469 263.488281 44.238281 C 261.78125 44.511719 259.339844 45.433594 258.003906 46.707031 C 256.664062 48.003906 256.40625 49.644531 256.707031 51.0625 C 257.015625 52.496094 257.878906 53.699219 258.816406 54.351562 C 259.746094 54.992188 260.75 55.085938 262.40625 54.597656 C 264.066406 54.105469 266.375 53.035156 267.59375 51.746094 C 268.816406 50.441406 268.9375 48.925781 268.699219 47.71875 Z M 268.699219 47.71875 " fill-opacity="1" fill-rule="evenodd"/></g></g></g><g clip-path="url(#3eeb8e2a68)"><g clip-path="url(#ffa9b77d47)"><g clip-path="url(#a1308b997c)"><path fill="#fbdcd9" d="M 267.234375 38.558594 C 266.351562 38.097656 265.117188 37.792969 264.238281 37.472656 C 263.355469 37.144531 262.8125 36.785156 261.945312 36.8125 C 261.078125 36.839844 259.871094 37.246094 259.152344 38.164062 C 258.449219 39.085938 258.230469 40.507812 258.765625 41.953125 C 259.289062 43.40625 260.574219 44.894531 261.875 45.53125 C 263.167969 46.167969 264.488281 45.949219 265.730469 45.445312 C 266.96875 44.941406 268.128906 44.144531 268.695312 43.238281 C 269.269531 42.34375 269.234375 41.335938 268.953125 40.511719 C 268.667969 39.679688 268.121094 39.03125 267.234375 38.558594 Z M 267.234375 38.558594 " fill-opacity="1" fill-rule="evenodd"/></g></g></g><g clip-path="url(#85d05dffab)"><g clip-path="url(#6cbe6faf86)"><g clip-path="url(#1e160e893d)"><path fill="#fbdcd9" d="M 281.703125 41.214844 C 281.867188 41.519531 281.96875 41.855469 282.007812 42.21875 C 282.050781 42.585938 282.027344 42.972656 281.945312 43.378906 C 281.859375 43.789062 281.714844 44.210938 281.511719 44.648438 C 281.304688 45.085938 281.046875 45.527344 280.726562 45.976562 C 280.410156 46.425781 280.039062 46.871094 279.621094 47.3125 C 279.203125 47.753906 278.738281 48.183594 278.234375 48.605469 C 277.730469 49.023438 277.195312 49.425781 276.625 49.804688 C 276.054688 50.1875 275.464844 50.539062 274.851562 50.867188 C 274.238281 51.195312 273.613281 51.488281 272.980469 51.75 C 272.347656 52.011719 271.714844 52.234375 271.085938 52.417969 C 270.457031 52.601562 269.839844 52.746094 269.238281 52.847656 C 268.640625 52.949219 268.0625 53.007812 267.515625 53.019531 C 266.964844 53.035156 266.453125 53.007812 265.976562 52.933594 C 265.496094 52.859375 265.066406 52.742188 264.679688 52.585938 C 264.296875 52.425781 263.960938 52.230469 263.683594 51.992188 C 263.402344 51.757812 263.179688 51.484375 263.015625 51.175781 C 262.851562 50.871094 262.75 50.535156 262.710938 50.171875 C 262.667969 49.804688 262.691406 49.417969 262.773438 49.011719 C 262.859375 48.601562 263.003906 48.179688 263.207031 47.742188 C 263.410156 47.304688 263.671875 46.863281 263.992188 46.414062 C 264.308594 45.96875 264.679688 45.523438 265.097656 45.078125 C 265.515625 44.636719 265.976562 44.207031 266.484375 43.785156 C 266.988281 43.367188 267.523438 42.964844 268.09375 42.585938 C 268.664062 42.207031 269.253906 41.851562 269.867188 41.523438 C 270.480469 41.195312 271.105469 40.902344 271.738281 40.640625 C 272.371094 40.382812 273.003906 40.15625 273.632812 39.972656 C 274.261719 39.789062 274.878906 39.644531 275.476562 39.542969 C 276.078125 39.441406 276.65625 39.382812 277.203125 39.371094 C 277.753906 39.355469 278.265625 39.382812 278.742188 39.457031 C 279.21875 39.53125 279.652344 39.648438 280.039062 39.804688 C 280.421875 39.964844 280.757812 40.160156 281.035156 40.398438 C 281.316406 40.636719 281.539062 40.90625 281.703125 41.214844 Z M 281.703125 41.214844 " fill-opacity="1" fill-rule="nonzero"/></g></g></g><g clip-path="url(#58283b2e9b)"><path fill="#f9afa6" d="M 243.660156 31.234375 C 243.425781 31.242188 243.082031 31.320312 242.816406 31.429688 C 242.378906 31.609375 241.957031 31.945312 241.675781 32.347656 C 241.550781 32.523438 241.382812 32.800781 241.324219 32.933594 C 241.164062 33.269531 241.042969 33.75 240.996094 34.21875 C 240.953125 34.636719 241.066406 35.199219 241.277344 35.59375 C 241.527344 36.074219 241.746094 36.269531 242.230469 36.464844 C 242.550781 36.589844 243.125 36.71875 243.511719 36.753906 C 243.707031 36.769531 243.753906 36.769531 243.96875 36.753906 C 244.195312 36.734375 244.382812 36.699219 244.617188 36.628906 C 245.070312 36.492188 245.355469 36.328125 245.664062 36.039062 C 245.855469 35.859375 246.046875 35.597656 246.175781 35.328125 C 246.277344 35.125 246.40625 34.742188 246.457031 34.507812 C 246.492188 34.34375 246.496094 34.292969 246.496094 34.019531 C 246.496094 33.753906 246.492188 33.695312 246.464844 33.558594 C 246.390625 33.21875 246.261719 32.894531 246.109375 32.667969 C 245.976562 32.46875 245.746094 32.167969 245.644531 32.058594 C 245.398438 31.800781 244.964844 31.523438 244.644531 31.417969 C 244.472656 31.363281 243.90625 31.246094 243.75 31.238281 C 243.722656 31.234375 243.691406 31.234375 243.660156 31.234375 Z M 243.660156 31.234375 " fill-opacity="1" fill-rule="nonzero"/></g><g clip-path="url(#02cdfdada4)"><path fill="#f9afa6" d="M 269.867188 43.796875 C 269.636719 43.804688 269.292969 43.882812 269.027344 43.992188 C 268.585938 44.171875 268.164062 44.511719 267.886719 44.910156 C 267.761719 45.085938 267.59375 45.367188 267.53125 45.496094 C 267.375 45.832031 267.25 46.3125 267.203125 46.78125 C 267.160156 47.203125 267.277344 47.761719 267.484375 48.15625 C 267.738281 48.636719 267.957031 48.835938 268.4375 49.027344 C 268.761719 49.152344 269.335938 49.28125 269.722656 49.316406 C 269.917969 49.332031 269.964844 49.332031 270.175781 49.316406 C 270.40625 49.296875 270.589844 49.261719 270.824219 49.191406 C 271.277344 49.054688 271.566406 48.894531 271.875 48.601562 C 272.066406 48.421875 272.253906 48.160156 272.386719 47.890625 C 272.484375 47.6875 272.617188 47.304688 272.664062 47.070312 C 272.699219 46.90625 272.703125 46.855469 272.707031 46.585938 C 272.707031 46.316406 272.703125 46.257812 272.671875 46.121094 C 272.601562 45.78125 272.472656 45.457031 272.316406 45.230469 C 272.183594 45.03125 271.957031 44.730469 271.851562 44.621094 C 271.605469 44.363281 271.175781 44.085938 270.855469 43.980469 C 270.679688 43.925781 270.113281 43.808594 269.960938 43.800781 C 269.933594 43.796875 269.902344 43.796875 269.867188 43.796875 Z M 269.867188 43.796875 " fill-opacity="1" fill-rule="nonzero"/></g></svg>